# Blender 3.4.1
# www.blender.org
mtllib room.mtl
o Cube.001
v -6.998037 -0.040666 6.767551
v -6.998037 4.864896 6.767551
v -6.117110 4.443606 6.248404
v -6.998037 -0.040666 -6.767551
v -6.998037 4.864896 -6.767551
v -6.117110 4.443606 -6.145863
v 6.998037 -0.040666 6.767551
v 6.998037 4.864896 6.767551
v 6.117110 4.443606 6.248404
v 6.998037 -0.040666 -6.767551
v 6.998037 4.864896 -6.767551
v 6.117110 4.443606 -6.145863
v -6.117110 -0.040666 -6.145863
v 6.117110 -0.040666 -6.145863
v -6.117110 -0.040666 6.248404
v 6.117110 -0.040666 6.248404
v -3.811515 3.565030 -6.767551
v -5.881852 3.565030 -6.767551
v -3.811515 -0.040666 -6.767551
v -5.881852 -0.040666 -6.767551
v -5.881852 -0.040666 -6.145863
v -3.811515 -0.040666 -6.145863
v -5.881852 3.565030 -6.145863
v -3.811515 3.565030 -6.145863
v 0.191337 3.520143 -6.767551
v 0.191337 2.940253 -6.767551
v 2.841287 3.520143 -6.767551
v 0.191337 1.271663 -6.767551
v 2.841287 1.271663 -6.767551
v 0.191337 1.271663 -6.145863
v 2.841287 1.271663 -6.145863
v 2.841287 3.520143 -6.145863
v 0.191337 3.520143 -6.145863
v 6.998037 3.520143 2.699528
v 6.998037 3.520143 0.049579
v 6.998037 1.271663 2.699528
v 6.998037 1.271663 0.049579
v 6.117110 3.520143 2.699528
v 6.117110 3.520143 0.049579
v 6.117110 1.271663 2.699528
v 6.117110 1.271663 0.049579
v 6.998037 1.271663 0.071418
v 6.998037 3.520143 0.071418
v 6.998037 3.520143 -2.578531
v 6.998037 1.271663 -2.578531
v 6.117110 3.520143 0.071418
v 6.117110 3.520143 -2.578531
v 6.117110 1.271663 -2.578531
v 6.117110 1.271663 0.071418
vn -1.0000 -0.0000 -0.0000
vn -0.0000 -0.0000 -1.0000
vn 1.0000 -0.0000 -0.0000
vn -0.0000 -0.0000 1.0000
vn -0.0000 -1.0000 -0.0000
vn -0.0000 1.0000 -0.0000
vt 0.375000 0.000000
vt 0.375000 1.000000
vt 0.125000 0.750000
vt 0.625000 0.000000
vt 0.625000 1.000000
vt 0.875000 0.750000
vt 0.625000 0.000000
vt 0.625000 1.000000
vt 0.875000 0.750000
vt 0.375000 0.250000
vt 0.125000 0.500000
vt 0.625000 0.250000
vt 0.875000 0.500000
vt 0.625000 0.250000
vt 0.875000 0.500000
vt 0.375000 0.750000
vt 0.625000 0.750000
vt 0.625000 0.750000
vt 0.375000 0.500000
vt 0.625000 0.500000
vt 0.625000 0.500000
vt 0.140735 0.511483
vt 0.392183 0.250000
vt 0.359265 0.511483
vt 0.392183 0.500000
vt 0.140735 0.740411
vt 0.392183 0.000000
vt 0.392183 1.000000
vt 0.359265 0.740411
vt 0.392183 0.750000
vt 0.522065 0.306918
vt 0.625000 0.585306
vt 0.522065 0.269937
vt 0.625000 0.164694
vt 0.875000 0.585306
vt 0.375000 0.306918
vt 0.181918 0.500000
vt 0.375105 0.585306
vt 0.375000 0.269937
vt 0.144937 0.500000
vt 0.375105 0.164694
vt 0.144937 0.511483
vt 0.392183 0.254807
vt 0.375105 0.086983
vt 0.181918 0.511483
vt 0.392183 0.297114
vt 0.375105 0.663017
vt 0.539248 0.254807
vt 0.625000 0.086983
vt 0.875000 0.663017
vt 0.539248 0.297114
vt 0.625000 0.663017
vt 0.520234 0.378418
vt 0.625000 0.147672
vt 0.875000 0.602328
vt 0.496582 0.378418
vt 0.560524 0.147672
vt 0.520234 0.425752
vt 0.625000 0.602328
vt 0.428526 0.378418
vt 0.375000 0.147672
vt 0.125000 0.602328
vt 0.428526 0.425752
vt 0.375000 0.602328
vt 0.445709 0.378910
vt 0.375000 0.069960
vt 0.125000 0.680040
vt 0.445709 0.433060
vt 0.375000 0.680040
vt 0.537417 0.433060
vt 0.625000 0.680040
vt 0.537417 0.378910
vt 0.625000 0.069960
vt 0.875000 0.680040
vt 0.556468 0.674862
vt 0.625000 0.500000
vt 0.625000 0.584758
vt 0.556468 0.625916
vt 0.875000 0.584758
vt 0.627060 0.601012
vt 0.441880 0.674862
vt 0.375000 0.750000
vt 0.375000 0.584758
vt 0.441880 0.625916
vt 0.125000 0.584758
vt 0.372940 0.601012
vt 0.577055 0.678417
vt 0.625000 0.500000
vt 0.625000 0.694874
vt 0.577055 0.624966
vt 0.875000 0.694874
vt 0.627060 0.711128
vt 0.460317 0.678417
vt 0.375000 0.750000
vt 0.375000 0.694874
vt 0.460317 0.624966
vt 0.125000 0.694874
vt 0.372940 0.711128
vt 0.441880 0.626319
vt 0.127060 0.584758
vt 0.556468 0.626319
vt 0.872940 0.584758
vt 0.556468 0.577373
vt 0.625000 0.000000
vt 0.875000 0.601012
vt 0.441880 0.577373
vt 0.375000 0.250000
vt 0.125000 0.601012
vt 0.577055 0.625406
vt 0.872940 0.694874
vt 0.577055 0.571955
vt 0.625000 0.000000
vt 0.875000 0.711128
vt 0.460317 0.571955
vt 0.375000 0.250000
vt 0.125000 0.711128
vt 0.460317 0.625406
vt 0.127060 0.694874
s 0
f 1/1/1 2/4/1 5/12/1 4/10/1
f 25/53/2 26/56/2 17/31/2 18/33/2 20/39/2 4/10/2 5/12/2 11/20/2 10/19/2 19/36/2 28/60/2 29/63/2 27/58/2
f 28/60/2 19/36/2 17/31/2 26/56/2
f 8/17/3 7/16/3 36/81/3 34/75/3
f 36/81/3 7/16/3 10/19/3 11/20/3 8/17/3 34/75/3 43/101/3 35/78/3 44/103/3 45/106/3 37/84/3 42/99/3
f 7/16/4 8/17/4 2/5/4 1/2/4
f 13/22/5 15/26/5 1/3/5 4/11/5 20/40/5 21/42/5
f 10/19/5 7/16/5 16/29/5 14/24/5 22/45/5 19/37/5
f 7/16/5 1/3/5 15/26/5 16/29/5
f 11/20/6 5/13/6 2/6/6 8/17/6
f 13/23/3 6/14/3 3/7/3 15/27/3
f 32/70/4 31/68/4 14/25/4 12/21/4 6/14/4 13/23/4 21/43/4 23/48/4 24/51/4 33/72/4
f 30/65/4 33/72/4 24/51/4 22/46/4 14/25/4 31/68/4
f 9/18/1 12/21/1 39/90/1 46/109/1 38/87/1
f 39/90/1 12/21/1 14/25/1 16/30/1 9/18/1 38/87/1 40/93/1 49/117/1 41/96/1 48/114/1 47/111/1
f 15/28/2 3/8/2 9/18/2 16/30/2
f 12/21/5 9/18/5 3/9/5 6/15/5
f 20/41/3 18/34/3 23/49/3 21/44/3
f 24/52/1 17/32/1 19/38/1 22/47/1
f 18/35/5 17/32/5 24/52/5 23/50/5
f 33/73/3 30/66/3 28/61/3 26/57/3 25/54/3
f 32/71/1 27/59/1 29/64/1 31/69/1
f 31/69/6 29/64/6 28/62/6 30/67/6
f 25/55/5 27/59/5 32/71/5 33/74/5
f 36/82/2 40/94/2 38/88/2 34/76/2
f 49/118/6 40/95/6 36/83/6 42/100/6
f 42/100/6 37/85/6 41/97/6 49/118/6
f 43/102/5 34/77/5 38/89/5 46/110/5
f 39/91/5 35/79/5 43/102/5 46/110/5
f 48/115/4 45/107/4 44/104/4 47/112/4
f 41/98/6 37/86/6 45/108/6 48/116/6
f 47/113/5 44/105/5 35/80/5 39/92/5
